<svg width="40" height="40" viewBox="0 0 40 40" fill="none" xmlns="http://www.w3.org/2000/svg">
<g id="flat-color-icons:google">
<path id="Vector" d="M36.3424 16.7345H34.9999V16.6654H19.9999V23.332H29.4191C28.0449 27.2129 24.3524 29.9987 19.9999 29.9987C14.4774 29.9987 9.99992 25.5212 9.99992 19.9987C9.99992 14.4762 14.4774 9.9987 19.9999 9.9987C22.5491 9.9987 24.8683 10.9604 26.6341 12.5312L31.3483 7.81703C28.3716 5.04286 24.3899 3.33203 19.9999 3.33203C10.7958 3.33203 3.33325 10.7945 3.33325 19.9987C3.33325 29.2029 10.7958 36.6654 19.9999 36.6654C29.2041 36.6654 36.6666 29.2029 36.6666 19.9987C36.6666 18.8812 36.5516 17.7904 36.3424 16.7345Z" fill="#FFC107"/>
<path id="Vector_2" d="M5.25488 12.2412L10.7307 16.257C12.2124 12.5887 15.8007 9.9987 19.9999 9.9987C22.5491 9.9987 24.8682 10.9604 26.6341 12.5312L31.3482 7.81703C28.3716 5.04286 24.3899 3.33203 19.9999 3.33203C13.5982 3.33203 8.04655 6.9462 5.25488 12.2412Z" fill="#FF3D00"/>
<path id="Vector_3" d="M20.0001 36.6672C24.3051 36.6672 28.2168 35.0197 31.1743 32.3406L26.0159 27.9756C24.2864 29.2909 22.173 30.0023 20.0001 30.0006C15.6651 30.0006 11.9843 27.2364 10.5976 23.3789L5.1626 27.5664C7.92093 32.9639 13.5226 36.6672 20.0001 36.6672Z" fill="#4CAF50"/>
<path id="Vector_4" d="M36.3425 16.7371H35V16.668H20V23.3346H29.4192C28.7618 25.1816 27.5778 26.7956 26.0133 27.9771L26.0158 27.9755L31.1742 32.3405C30.8092 32.6721 36.6667 28.3346 36.6667 20.0013C36.6667 18.8838 36.5517 17.793 36.3425 16.7371Z" fill="#1976D2"/>
</g>
</svg>
