<svg width="40" height="40" viewBox="0 0 40 40" fill="none" xmlns="http://www.w3.org/2000/svg">
<g id="openmoji:male-doctor">
<path id="Vector" d="M9.41655 33.8211C9.41655 33.8211 8.24989 25.5433 14.9166 25.5433C16.6904 26.7261 18.2649 27.6539 19.9721 27.6505L20.1254 27.7061C21.8332 27.7094 23.4077 26.6705 25.181 25.4883C31.6054 25.4689 30.4638 33.7661 30.5921 33.8216" fill="white"/>
<path id="Vector_2" d="M13.8427 33.224C14.7632 33.224 15.5094 32.4778 15.5094 31.5573C15.5094 30.6368 14.7632 29.8906 13.8427 29.8906C12.9222 29.8906 12.176 30.6368 12.176 31.5573C12.176 32.4778 12.9222 33.224 13.8427 33.224Z" fill="#9B9B9A"/>
<path id="Vector_3" d="M25.2112 25.4805C23.4501 26.6544 22.2807 27.4249 20.0234 27.7521C27.2807 27.9805 27.2251 31.5916 27.6484 33.8138H30.489C30.489 33.8138 31.9412 25.4794 25.2112 25.4805Z" fill="#D0CFCE"/>
<path id="Vector_4" d="M14.9795 10.4062V5.97839C14.9795 5.97839 18.7128 6.12283 20.085 4.51172C21.4573 6.12283 25.1906 5.97839 25.1906 5.97839V10.3895L20.1517 9.90061L14.9795 10.4062Z" fill="white"/>
<path id="Vector_5" d="M18.9851 7.87281H19.7862V8.67392H20.3501V7.87281H21.1512V7.30892H20.3501V6.50781H19.7862V7.30892H18.9851V7.87281Z" fill="#D22F27"/>
<path id="Vector_6" d="M26.3583 16.2638C25.3317 16.4116 25.0267 13.486 25.0267 13.486C24.8133 16.4694 21.8022 13.2155 21.8022 13.2155C22.2889 15.1155 18.9556 12.8955 18.9556 12.8955C19.7539 14.5883 16.3961 12.3594 16.3961 12.3594C16.3961 12.3594 14.8789 15.7344 13.8272 16.2349C13.82 16.3922 13.8083 16.5483 13.8083 16.7083C13.8083 21.0572 16.6284 24.5822 20.1072 24.5822C23.5861 24.5822 26.4067 21.0572 26.4067 16.7083C26.4067 16.536 26.3945 16.3683 26.3861 16.1994C26.3756 16.221 26.3695 16.2427 26.3583 16.2638Z" fill="#FCEA2B"/>
<path id="Vector_7" d="M26.4132 16.1443C26.3966 16.1832 26.3743 16.222 26.3577 16.2609C25.3299 16.4109 25.0243 13.4832 25.0243 13.4832C24.8132 16.4665 21.8021 13.2165 21.8021 13.2165C22.291 15.1165 18.9577 12.8943 18.9577 12.8943C19.7521 14.5887 16.3966 12.3609 16.3966 12.3609C16.3966 12.3609 14.8355 15.8332 13.7855 16.2554C13.7799 16.2554 13.7799 16.2609 13.7743 16.2609C13.6966 16.0776 13.6299 15.8943 13.5743 15.7165C13.2995 14.9353 13.2422 14.0941 13.4085 13.2829C13.5749 12.4716 13.9587 11.7209 14.5188 11.1109C14.4859 11.0637 14.4615 11.011 14.4466 10.9554C14.4273 10.8792 14.4216 10.8002 14.4299 10.722C14.4299 10.7109 14.4243 10.6943 14.4243 10.6832V9.79983C14.741 9.39983 14.4966 9.53872 14.9188 9.34427L15.2077 10.3498L15.5355 10.0776C18.5159 9.27851 21.654 9.27659 24.6355 10.072V9.21094C25.0461 9.60301 25.4148 10.0368 25.7355 10.5054C25.741 10.5109 25.741 10.5165 25.7466 10.522C26.122 11.06 26.4177 11.6494 26.6243 12.272C27.0586 13.5414 26.9829 14.9297 26.4132 16.1443Z" fill="#A57939"/>
<path id="Vector_8" d="M25.5746 5.57593C25.5208 5.5245 25.4571 5.48465 25.3873 5.45885C25.3176 5.43304 25.2433 5.42184 25.169 5.42593C25.0912 5.42593 24.9968 5.43148 24.8912 5.43148C23.7801 5.42593 21.4468 5.20926 20.5301 4.17593C20.5068 4.1424 20.4787 4.11245 20.4468 4.08704C20.3891 4.03696 20.3207 4.00084 20.2468 3.98148C20.2262 3.97079 20.2033 3.96508 20.1801 3.96482C20.1496 3.95534 20.1176 3.95157 20.0857 3.9537C20.0538 3.95191 20.0218 3.95567 19.9912 3.96482C19.968 3.96508 19.9452 3.97079 19.9246 3.98148C19.8215 4.00974 19.73 4.07005 19.6634 4.15371C19.6579 4.15926 19.6523 4.17037 19.6412 4.17593C19.0572 4.71821 18.3236 5.07242 17.5357 5.19259C16.7915 5.34439 16.0341 5.42254 15.2746 5.42593C15.1746 5.42593 15.0801 5.42593 15.0023 5.42037C14.8504 5.41734 14.7031 5.47306 14.5912 5.57593C14.485 5.68198 14.425 5.8258 14.4246 5.97593V10.6815C14.4246 10.6926 14.4301 10.7093 14.4301 10.7204C14.4218 10.7985 14.4275 10.8775 14.4468 10.9537C14.4617 11.0093 14.4861 11.062 14.519 11.1093C14.5708 11.1838 14.6397 11.245 14.7199 11.2875C14.8001 11.33 14.8893 11.3527 14.9801 11.3537C15.0349 11.3526 15.0892 11.3432 15.1412 11.3259C18.3598 10.3257 21.806 10.3257 25.0246 11.3259C25.1484 11.3644 25.2818 11.3582 25.4016 11.3085C25.5214 11.2587 25.6199 11.1686 25.6801 11.0537C25.6964 11.0257 25.7095 10.9958 25.719 10.9648C25.7299 10.9326 25.7356 10.8988 25.7357 10.8648C25.744 10.817 25.744 10.7682 25.7357 10.7204C25.7426 10.7086 25.7465 10.6952 25.7468 10.6815V5.97593C25.7468 5.90105 25.7315 5.82697 25.7019 5.75819C25.6722 5.68942 25.6289 5.6274 25.5746 5.57593ZM24.6357 10.0704C21.6542 9.27491 18.5161 9.27683 15.5357 10.0759V6.53148C15.6579 6.53148 15.8023 6.52593 15.9579 6.51482C17.0912 6.44815 18.9357 6.19815 20.0857 5.27037C21.2357 6.19815 23.0801 6.44815 24.2134 6.51482C24.369 6.52593 24.5134 6.53148 24.6357 6.53148V10.0704Z" fill="black"/>
<path id="Vector_9" d="M20.35 6.50812V7.30924H21.1511V7.87312H20.35V8.67424H19.7861V7.87368H18.985V7.30979H19.7861V6.50868H20.35M20.35 5.95312H19.7861C19.6388 5.95312 19.4975 6.01166 19.3933 6.11584C19.2891 6.22003 19.2306 6.36134 19.2306 6.50868V6.75424H18.985C18.8377 6.75424 18.6964 6.81277 18.5922 6.91695C18.488 7.02114 18.4295 7.16245 18.4295 7.30979V7.87368C18.4295 8.02102 18.488 8.16233 18.5922 8.26652C18.6964 8.3707 18.8377 8.42924 18.985 8.42924H19.2306V8.67479C19.2306 8.74775 19.2449 8.81999 19.2729 8.88739C19.3008 8.9548 19.3417 9.01604 19.3933 9.06763C19.4449 9.11922 19.5061 9.16014 19.5735 9.18806C19.6409 9.21598 19.7132 9.23035 19.7861 9.23035H20.35C20.4974 9.23035 20.6387 9.17182 20.7429 9.06763C20.847 8.96344 20.9056 8.82213 20.9056 8.67479V8.42924H21.1511C21.2985 8.42924 21.4398 8.3707 21.544 8.26652C21.6482 8.16233 21.7067 8.02102 21.7067 7.87368V7.30979C21.7067 7.16245 21.6482 7.02114 21.544 6.91695C21.4398 6.81277 21.2985 6.75424 21.1511 6.75424H20.9056V6.50868C20.9056 6.36134 20.847 6.22003 20.7429 6.11584C20.6387 6.01166 20.4974 5.95312 20.35 5.95312ZM23.475 16.1515C23.475 16.3712 23.4098 16.586 23.2878 16.7688C23.1657 16.9515 22.9921 17.0939 22.7891 17.178C22.5861 17.2621 22.3627 17.2841 22.1471 17.2412C21.9316 17.1983 21.7336 17.0925 21.5782 16.9371C21.4228 16.7817 21.317 16.5838 21.2741 16.3682C21.2313 16.1527 21.2533 15.9293 21.3374 15.7263C21.4215 15.5232 21.5639 15.3497 21.7466 15.2276C21.9293 15.1055 22.1441 15.0403 22.3639 15.0403C22.6586 15.0403 22.9412 15.1574 23.1496 15.3658C23.358 15.5742 23.475 15.8568 23.475 16.1515ZM19.0306 16.1515C19.0306 16.3712 18.9654 16.586 18.8433 16.7688C18.7212 16.9515 18.5477 17.0939 18.3447 17.178C18.1416 17.2621 17.9182 17.2841 17.7027 17.2412C17.4872 17.1983 17.2892 17.0925 17.1338 16.9371C16.9784 16.7817 16.8726 16.5838 16.8297 16.3682C16.7868 16.1527 16.8088 15.9293 16.8929 15.7263C16.977 15.5232 17.1194 15.3497 17.3022 15.2276C17.4849 15.1055 17.6997 15.0403 17.9195 15.0403C18.2141 15.0403 18.4968 15.1574 18.7051 15.3658C18.9135 15.5742 19.0306 15.8568 19.0306 16.1515ZM20.1417 21.7081C19.4748 21.7018 18.8188 21.5387 18.2267 21.232C18.1614 21.1994 18.1032 21.1542 18.0553 21.099C18.0075 21.0439 17.971 20.9798 17.9479 20.9106C17.9248 20.8413 17.9156 20.7682 17.9208 20.6954C17.926 20.6226 17.9454 20.5515 17.9781 20.4862C18.0107 20.4209 18.0559 20.3627 18.1111 20.3148C18.1662 20.267 18.2302 20.2305 18.2995 20.2074C18.3688 20.1843 18.4419 20.1751 18.5147 20.1803C18.5875 20.1855 18.6586 20.2049 18.7239 20.2376C19.1596 20.4725 19.6469 20.5955 20.142 20.5955C20.637 20.5955 21.1243 20.4725 21.56 20.2376C21.6253 20.2049 21.6964 20.1855 21.7692 20.1803C21.842 20.1751 21.9152 20.1843 21.9844 20.2074C22.0537 20.2305 22.1177 20.267 22.1729 20.3148C22.228 20.3627 22.2732 20.4209 22.3059 20.4862C22.3385 20.5515 22.358 20.6226 22.3631 20.6954C22.3683 20.7682 22.3591 20.8413 22.336 20.9106C22.3129 20.9798 22.2764 21.0439 22.2286 21.099C22.1808 21.1542 22.1225 21.1994 22.0572 21.232C21.4649 21.5388 20.8087 21.7019 20.1417 21.7081Z" fill="black"/>
<path id="Vector_10" d="M20.1417 25.3347C16.3622 25.3347 13.2872 21.553 13.2872 16.9047L13.2205 16.1425C13.2143 16.0698 13.2224 15.9966 13.2445 15.927C13.2665 15.8574 13.3021 15.7929 13.3491 15.7371C13.3961 15.6813 13.4536 15.6353 13.5184 15.6017C13.5832 15.5681 13.654 15.5476 13.7267 15.5414C13.7995 15.5345 13.873 15.5421 13.9428 15.564C14.0127 15.5858 14.0775 15.6213 14.1334 15.6685C14.1893 15.7157 14.2353 15.7736 14.2686 15.8388C14.3018 15.9039 14.3218 15.9751 14.3272 16.048L14.3961 16.8575C14.3983 20.9408 16.975 24.2236 20.1417 24.2236C23.3083 24.2236 25.8855 20.9403 25.8855 16.9047C25.8855 16.6455 25.875 16.389 25.8539 16.1353C25.848 16.0625 25.8566 15.9894 25.879 15.9199C25.9015 15.8505 25.9374 15.7862 25.9847 15.7306C26.032 15.675 26.0898 15.6293 26.1547 15.5961C26.2197 15.5629 26.2906 15.5428 26.3633 15.5369C26.4361 15.5311 26.5092 15.5396 26.5787 15.5621C26.6481 15.5845 26.7124 15.6204 26.768 15.6677C26.8236 15.715 26.8693 15.7728 26.9025 15.8378C26.9357 15.9028 26.9558 15.9736 26.9617 16.0464C26.9846 16.3286 26.9963 16.6147 26.9967 16.9047C26.9967 21.553 23.9222 25.3347 20.1417 25.3347Z" fill="black"/>
<path id="Vector_11" d="M26.2817 16.8227C26.0344 16.8209 25.7949 16.7356 25.6023 16.5804C25.1993 16.1907 24.9173 15.6931 24.7901 15.1471C24.7315 15.1786 24.6706 15.2056 24.6078 15.2277C23.7934 15.5127 22.8056 14.8754 22.1156 14.286C22.0865 14.3128 22.0557 14.3377 22.0234 14.3604C21.44 14.7743 20.3989 14.3893 19.4345 13.8421C19.4166 13.8613 19.3977 13.8795 19.3778 13.8966C19.1773 14.0704 18.7239 14.4593 16.6323 13.171C16.0701 14.3327 14.9812 16.3488 14.0156 16.7616C13.8782 16.8235 13.7218 16.8284 13.5807 16.7753C13.4396 16.7222 13.3253 16.6154 13.2628 16.4782C13.1802 16.2834 13.1071 16.0846 13.0439 15.8827C12.7387 15.0062 12.6775 14.0632 12.8671 13.1546C13.0566 12.2461 13.4898 11.4062 14.1201 10.7249C14.2515 10.5873 14.3926 10.4592 14.5423 10.3416C14.6583 10.2524 14.8048 10.2127 14.95 10.2309C15.0952 10.2492 15.2273 10.324 15.3177 10.439C15.408 10.5541 15.4494 10.7002 15.4326 10.8456C15.4159 10.991 15.3425 11.1239 15.2284 11.2154C15.1195 11.3012 15.0168 11.3946 14.9212 11.4949C14.4545 12.003 14.1281 12.6239 13.9741 13.2963C13.82 13.9688 13.8435 14.6698 14.0423 15.3304C14.779 14.3394 15.399 13.2668 15.8901 12.1338C15.9231 12.0603 15.9718 11.9948 16.0326 11.942C16.0935 11.8892 16.1652 11.8503 16.2426 11.8279C16.32 11.8055 16.4014 11.8003 16.4811 11.8125C16.5607 11.8248 16.6368 11.8542 16.7039 11.8988C17.2434 12.2614 17.8121 12.5788 18.4039 12.8477C18.4122 12.7515 18.4453 12.6591 18.5001 12.5796C18.5549 12.5001 18.6294 12.4363 18.7164 12.3944C18.8034 12.3525 18.8998 12.334 18.9961 12.3407C19.0924 12.3474 19.1853 12.3791 19.2656 12.4327C19.8811 12.8652 20.5604 13.1988 21.2789 13.4216C21.2748 13.3993 21.2698 13.3773 21.2639 13.3554C21.2331 13.2357 21.2431 13.1091 21.2923 12.9957C21.3416 12.8822 21.4272 12.7885 21.5358 12.7292C21.6443 12.67 21.7695 12.6486 21.8915 12.6686C22.0136 12.6885 22.1255 12.7486 22.2095 12.8393C22.9484 13.6354 23.9284 14.2877 24.2384 14.1799C24.3023 14.1577 24.4323 13.9749 24.4701 13.4443C24.4799 13.3059 24.5413 13.1761 24.642 13.0807C24.7428 12.9853 24.8757 12.9311 25.0145 12.9288C25.1528 12.9285 25.2865 12.9789 25.3901 13.0705C25.4937 13.1622 25.5601 13.2887 25.5767 13.426C25.6391 14.1583 25.8306 14.8738 26.1423 15.5393C26.3785 15.0709 26.5003 14.5531 26.4978 14.0284C26.4953 13.5038 26.3685 12.9872 26.1278 12.521C25.9328 12.1237 25.6591 11.77 25.3234 11.4816C25.247 11.4172 25.1666 11.3576 25.0828 11.3032C25.0212 11.2642 24.9678 11.2134 24.9258 11.1537C24.8838 11.0941 24.8539 11.0267 24.8379 10.9556C24.8219 10.8844 24.8201 10.8107 24.8326 10.7388C24.8451 10.6669 24.8716 10.5982 24.9106 10.5366C24.9496 10.4749 25.0004 10.4215 25.0601 10.3795C25.1197 10.3375 25.1871 10.3077 25.2583 10.2917C25.3295 10.2757 25.4031 10.2739 25.475 10.2863C25.5469 10.2988 25.6156 10.3253 25.6773 10.3643C25.8014 10.4446 25.9205 10.5324 26.0339 10.6271C26.8585 11.3374 27.3979 12.3222 27.5525 13.3995C27.7072 14.4768 27.4665 15.5736 26.8751 16.4871L26.8395 16.5399C26.7447 16.6777 26.6015 16.7747 26.4384 16.8116C26.3865 16.819 26.3341 16.8227 26.2817 16.8227ZM13.8428 33.781C13.4033 33.781 12.9737 33.6507 12.6082 33.4065C12.2428 33.1623 11.958 32.8152 11.7898 32.4092C11.6216 32.0031 11.5776 31.5563 11.6633 31.1252C11.7491 30.6942 11.9607 30.2982 12.2715 29.9874C12.5823 29.6766 12.9782 29.465 13.4093 29.3793C13.8404 29.2935 14.2872 29.3375 14.6932 29.5057C15.0993 29.6739 15.4464 29.9587 15.6905 30.3242C15.9347 30.6896 16.0651 31.1193 16.0651 31.5588C16.0645 32.148 15.8301 32.7129 15.4135 33.1295C14.9969 33.5461 14.432 33.7804 13.8428 33.781ZM13.8428 30.4477C13.6231 30.4477 13.4082 30.5128 13.2255 30.6349C13.0428 30.757 12.9004 30.9305 12.8163 31.1336C12.7322 31.3366 12.7102 31.56 12.7531 31.7755C12.7959 31.9911 12.9018 32.1891 13.0572 32.3445C13.2125 32.4998 13.4105 32.6057 13.6261 32.6485C13.8416 32.6914 14.065 32.6694 14.268 32.5853C14.4711 32.5012 14.6446 32.3588 14.7667 32.1761C14.8888 31.9934 14.9539 31.7785 14.9539 31.5588C14.9535 31.2642 14.8363 30.9819 14.628 30.7736C14.4197 30.5653 14.1374 30.4481 13.8428 30.4477Z" fill="black"/>
<path id="Vector_12" d="M13.8421 30.4459C13.7178 30.4457 13.5971 30.4038 13.4994 30.3268C13.4017 30.2498 13.3326 30.1423 13.3032 30.0215C13.2699 29.8854 12.5182 26.6659 14.7088 24.3926C14.7595 24.3401 14.82 24.298 14.8869 24.2689C14.9538 24.2397 15.0258 24.2241 15.0988 24.2227C15.1718 24.2214 15.2443 24.2345 15.3122 24.2612C15.3801 24.2879 15.4421 24.3277 15.4946 24.3784C15.5472 24.4291 15.5892 24.4896 15.6183 24.5565C15.6475 24.6234 15.6632 24.6954 15.6645 24.7684C15.6658 24.8414 15.6527 24.9139 15.626 24.9818C15.5993 25.0497 15.5595 25.1117 15.5088 25.1642C13.7377 27.0015 14.376 29.7315 14.3827 29.7587C14.4026 29.8405 14.4036 29.9257 14.3857 30.008C14.3678 30.0902 14.3314 30.1673 14.2794 30.2334C14.2273 30.2996 14.1609 30.353 14.0851 30.3897C14.0094 30.4264 13.9263 30.446 13.8421 30.4459ZM30.5955 33.8442C30.5153 33.8447 30.436 33.8278 30.363 33.7946C30.29 33.7614 30.2251 33.7127 30.1728 33.6519C30.1205 33.5912 30.082 33.5198 30.06 33.4426C30.038 33.3655 30.0331 33.2846 30.0455 33.2054C30.0521 33.1609 30.6899 28.6909 27.6494 27.1631C27.5841 27.1304 27.526 27.0851 27.4783 27.0299C27.4306 26.9746 27.3942 26.9106 27.3712 26.8413C27.3483 26.772 27.3392 26.6989 27.3445 26.6261C27.3498 26.5533 27.3694 26.4822 27.4021 26.417C27.4349 26.3518 27.4802 26.2937 27.5354 26.2459C27.5906 26.1982 27.6547 26.1618 27.724 26.1389C27.7933 26.1159 27.8664 26.1068 27.9392 26.1122C28.012 26.1175 28.083 26.137 28.1482 26.1698C31.9149 28.062 31.1766 33.1576 31.1438 33.3737C31.1235 33.5046 31.0571 33.624 30.9566 33.7103C30.856 33.7966 30.728 33.8441 30.5955 33.8442ZM20.0955 28.6181H20.0377L20.0149 28.6176C18.6971 28.5998 17.4182 28.1565 15.7644 27.147C15.6439 27.0679 15.5589 26.9452 15.5272 26.8046C15.4956 26.664 15.5198 26.5166 15.5948 26.3936C15.6698 26.2705 15.7896 26.1814 15.9291 26.145C16.0685 26.1087 16.2166 26.1279 16.3421 26.1987C17.8338 27.1092 18.9527 27.5015 20.0727 27.507C21.3225 27.4465 22.5315 27.0431 23.5671 26.3409C23.63 26.3039 23.6995 26.2795 23.7718 26.2693C23.844 26.2592 23.9176 26.2633 23.9882 26.2815C24.0589 26.2998 24.1252 26.3317 24.1835 26.3756C24.2418 26.4195 24.2909 26.4745 24.328 26.5373C24.365 26.6002 24.3893 26.6697 24.3995 26.7419C24.4097 26.8142 24.4056 26.8877 24.3873 26.9584C24.3691 27.029 24.3371 27.0954 24.2933 27.1537C24.2494 27.212 24.1944 27.2611 24.1316 27.2981C22.9411 28.0879 21.5605 28.5435 20.1338 28.6176H20.0949L20.0955 28.6181ZM9.55158 33.8442C9.41918 33.844 9.29124 33.7964 9.19081 33.7101C9.09038 33.6238 9.02406 33.5045 9.0038 33.3737C8.9688 33.1448 8.18824 27.7437 12.3482 26.0098C12.4842 25.9531 12.6372 25.9527 12.7735 26.0087C12.9098 26.0648 13.0182 26.1727 13.0749 26.3087C13.1316 26.4447 13.132 26.5977 13.076 26.7339C13.0199 26.8702 12.912 26.9786 12.776 27.0354C9.42213 28.4337 10.0949 33.1576 10.1021 33.2059C10.1144 33.2851 10.1094 33.366 10.0874 33.443C10.0654 33.5201 10.0269 33.5914 9.97456 33.6521C9.92226 33.7128 9.8574 33.7614 9.78447 33.7946C9.71153 33.8278 9.6317 33.8447 9.55158 33.8442Z" fill="black"/>
<path id="Vector_13" d="M25.2055 34.3609C25.187 34.361 25.1685 34.3603 25.15 34.3587C25.0036 34.3442 24.8689 34.2723 24.7755 34.1587C24.6821 34.045 24.6376 33.899 24.6517 33.7526L24.6905 33.3376C24.551 33.2673 24.4258 33.1718 24.3211 33.0559C23.5639 32.2315 23.7567 30.3381 23.8205 29.8581C23.8111 29.0526 24.1705 27.6726 25.515 27.2815C25.3107 26.5127 24.9543 25.7927 24.4667 25.1642C24.3643 25.0582 24.3083 24.9158 24.311 24.7684C24.3136 24.621 24.3747 24.4807 24.4808 24.3784C24.5869 24.2761 24.7293 24.2201 24.8767 24.2227C25.024 24.2254 25.1643 24.2865 25.2667 24.3926C26.2433 25.4048 26.7367 27.5192 26.7572 27.6092C26.7754 27.6891 26.7758 27.772 26.7582 27.852C26.7406 27.932 26.7056 28.0072 26.6556 28.0721C26.6056 28.1369 26.5418 28.19 26.4689 28.2273C26.396 28.2647 26.3157 28.2854 26.2339 28.2881C24.9644 28.3304 24.9272 29.6181 24.9322 29.8759C24.9328 29.9062 24.9309 29.9365 24.9267 29.9665C24.8415 30.5756 24.845 31.1939 24.9372 31.802C24.9945 31.7323 25.0682 31.678 25.1517 31.644C25.2352 31.6099 25.3259 31.5972 25.4155 31.607C25.5621 31.6211 25.6971 31.6928 25.7909 31.8063C25.8846 31.9199 25.9295 32.066 25.9155 32.2126L25.8517 32.882C25.8528 32.9094 25.8521 32.9369 25.8494 32.9642L25.7578 33.862C25.7437 33.9989 25.6794 34.1256 25.5773 34.2178C25.4752 34.3099 25.3431 34.3609 25.2055 34.3609Z" fill="black"/>
<path id="Vector_14" d="M27.4511 34.3612C27.3136 34.3611 27.1809 34.31 27.0789 34.2177C26.9769 34.1255 26.9128 33.9986 26.8989 33.8618L26.8078 32.964C26.8051 32.9374 26.8044 32.9107 26.8055 32.884L26.7417 32.2124C26.7347 32.1398 26.7421 32.0665 26.7635 31.9968C26.7848 31.927 26.8197 31.8622 26.8661 31.8059C26.9126 31.7497 26.9696 31.7032 27.0341 31.669C27.0985 31.6348 27.169 31.6137 27.2417 31.6068C27.3312 31.5969 27.4218 31.6096 27.5053 31.6437C27.5887 31.6777 27.6623 31.7321 27.7194 31.8018C27.8115 31.1938 27.8148 30.5757 27.7294 29.9668C27.7251 29.9359 27.7233 29.9047 27.7239 29.8735C27.7294 29.6185 27.6917 28.3307 26.4222 28.2885C26.3478 28.2883 26.2743 28.2731 26.2059 28.2439C26.1375 28.2148 26.0756 28.1722 26.024 28.1186C25.9723 28.0651 25.932 28.0018 25.9053 27.9324C25.8786 27.863 25.8661 27.7889 25.8685 27.7146C25.871 27.6402 25.8883 27.5672 25.9196 27.4997C25.9508 27.4322 25.9952 27.3716 26.0503 27.3216C26.1054 27.2716 26.1699 27.2332 26.2401 27.2086C26.3103 27.184 26.3847 27.1738 26.4589 27.1785C28.3683 27.2412 28.8461 28.9307 28.8355 29.8585C28.8989 30.3385 29.0922 32.2312 28.3355 33.0568C28.2302 33.1724 28.1046 33.2676 27.965 33.3379L28.0044 33.7535C28.0184 33.8998 27.9738 34.0457 27.8804 34.1592C27.787 34.2727 27.6524 34.3445 27.5061 34.359C27.4878 34.3607 27.4695 34.3611 27.4511 34.3612ZM19.9522 33.8451C19.8495 33.8452 19.7489 33.8168 19.6613 33.7632C19.5737 33.7095 19.5027 33.6327 19.4561 33.5412L16.3133 27.3562C16.2799 27.2912 16.2597 27.2201 16.2538 27.1472C16.2479 27.0743 16.2564 27.0009 16.279 26.9313C16.3015 26.8617 16.3376 26.7972 16.3851 26.7416C16.4326 26.686 16.4906 26.6403 16.5558 26.6071C16.6211 26.574 16.6922 26.5541 16.7651 26.5485C16.8381 26.5429 16.9114 26.5518 16.9809 26.5746C17.0504 26.5975 17.1147 26.6338 17.1701 26.6816C17.2256 26.7293 17.271 26.7875 17.3039 26.8529L20.4472 33.0379C20.4902 33.1225 20.5108 33.2168 20.507 33.3116C20.5033 33.4065 20.4753 33.4988 20.4257 33.5798C20.3761 33.6607 20.3066 33.7276 20.2238 33.7741C20.141 33.8205 20.0471 33.845 19.9522 33.8451Z" fill="black"/>
<path id="Vector_15" d="M19.9511 33.8475C19.8557 33.8475 19.7619 33.8229 19.6788 33.7761C19.5956 33.7293 19.5259 33.6618 19.4764 33.5803C19.4269 33.4987 19.3992 33.4058 19.3961 33.3104C19.3929 33.2151 19.4143 33.1205 19.4583 33.0358L22.6016 26.9792C22.6696 26.8484 22.7867 26.75 22.9272 26.7056C23.0676 26.6611 23.22 26.6743 23.3508 26.7422C23.4816 26.8102 23.58 26.9273 23.6244 27.0677C23.6689 27.2082 23.6557 27.3606 23.5878 27.4914L20.445 33.5481C20.398 33.6385 20.3271 33.7142 20.24 33.767C20.1529 33.8198 20.0529 33.8477 19.9511 33.8475Z" fill="black"/>
</g>
</svg>
