<svg width="132" height="46" viewBox="0 0 132 46" fill="none" xmlns="http://www.w3.org/2000/svg">
<path id="Vector 38" d="M58.918 41.8388C55.7207 26.3038 33.3553 2.99741 30.3508 29.8319C28.5213 46.1719 46.2298 39.6775 52.7845 39.6775C56.2209 39.6775 61.8002 41.2356 63.1191 34.8748C64.7915 26.8088 53.9957 16.4705 51.6922 25.0291C50.0205 31.2405 54.439 34.3564 57.8258 36.1955C71.1094 43.409 74.8094 22.783 70.681 7.73922C70.3182 6.4173 66.7777 -1.81574 65.3036 4.13715C63.3611 11.9824 65.8796 23.225 67.6562 30.4322C73.0605 52.3551 81.0996 45.2102 81.0996 25.3893C81.0996 -9.13567 14.0936 44 4.47227 44C-7.77582 44 28.8372 40.3809 41.0215 38.5969C57.2907 36.2148 73.5517 33.1938 89.9219 33.1938C94.9631 33.1938 100.004 33.1938 105.046 33.1938C109.835 33.1938 114.624 33.1938 119.413 33.1938C122.05 33.1938 114.252 31.6428 111.683 30.7924C109.258 29.9897 85.3271 18.5238 86.477 24.5488C87.3259 28.9969 91.1047 33.0752 94.375 31.3928C96.4285 30.3363 100.498 19.6116 100.761 19.9862C104.138 24.8128 108.026 47.2877 113.364 41.8388C117.164 37.9593 128.604 39.3454 130 35.355" stroke="#121212" stroke-opacity="0.7" stroke-width="3" stroke-linecap="round"/>
</svg>
