<svg width="105" height="105" viewBox="0 0 105 105" fill="none" xmlns="http://www.w3.org/2000/svg">
<path id="Vector" d="M95.9726 2.01778C94.136 0.9958 92.1159 0.345884 90.028 0.1052C87.94 -0.135484 85.825 0.0377839 83.8041 0.615096C81.7831 1.19241 79.8958 2.16244 78.25 3.46972C76.6042 4.777 75.2323 6.39587 74.2126 8.23378L44.5086 61.6898L27.5086 44.6898C26.0327 43.1616 24.2671 41.9427 22.3151 41.1042C20.363 40.2656 18.2635 39.8242 16.139 39.8058C14.0146 39.7873 11.9077 40.1921 9.94135 40.9966C7.975 41.8011 6.18858 42.9892 4.68629 44.4915C3.18401 45.9937 1.99596 47.7802 1.19146 49.7465C0.386971 51.7129 -0.017857 53.8197 0.000604107 55.9442C0.0190652 58.0687 0.460446 60.1682 1.29899 62.1203C2.13753 64.0723 3.35645 65.8378 4.88461 67.3138L36.8846 99.3138C39.9086 102.346 43.9886 104.01 48.1966 104.01L50.4126 103.85C52.865 103.507 55.2043 102.599 57.2464 101.198C59.2884 99.7977 60.9775 97.9421 62.1806 95.7778L102.181 23.7778C103.202 21.9414 103.851 19.9218 104.092 17.8344C104.333 15.747 104.16 13.6326 103.583 11.612C103.007 9.59137 102.038 7.70408 100.732 6.0579C99.4264 4.41172 97.8091 3.03888 95.9726 2.01778Z" fill="#228A5E"/>
</svg>
